<?xml version="1.0" standalone="no"?>
<!DOCTYPE svg PUBLIC "-//W3C//DTD SVG 20010904//EN"
 "http://www.w3.org/TR/2001/REC-SVG-20010904/DTD/svg10.dtd">
<svg version="1.0" xmlns="http://www.w3.org/2000/svg"
 width="700.000000pt" height="700.000000pt" viewBox="0 0 700.000000 700.000000"
 preserveAspectRatio="xMidYMid meet">
<metadata>
Created by potrace 1.14, written by Peter Selinger 2001-2017
</metadata>
<g transform="translate(0.000000,700.000000) scale(0.100000,-0.100000)"
fill="#000000" stroke="none">
<path d="M1410 5583 c-221 -37 -430 -201 -515 -403 -56 -133 -55 -117 -52
-1000 1 -448 6 -828 10 -843 57 -213 192 -375 388 -466 138 -64 -12 -60 2279
-58 l2085 2 80 27 c224 77 382 245 447 475 21 77 21 87 22 873 0 862 -1 878
-55 998 -85 190 -251 330 -453 382 -68 17 -163 18 -2141 18 -1138 -1 -2081 -3
-2095 -5z m4186 -246 c82 -24 134 -56 194 -116 61 -61 105 -141 119 -217 7
-37 17 -1413 12 -1577 -4 -106 -103 -257 -211 -319 -108 -63 -72 -61 -1113
-62 -521 -1 -955 2 -964 5 -14 5 -16 110 -16 1148 0 784 3 1145 11 1150 5 3
439 5 964 5 826 -1 960 -3 1004 -17z m-3227 -386 c88 -33 145 -82 196 -166 66
-110 72 -254 14 -370 -117 -239 -433 -293 -623 -109 -184 180 -146 490 78 619
96 56 230 66 335 26z m296 -979 c83 -27 217 -100 271 -148 32 -29 40 -69 38
-196 -1 -127 -11 -163 -52 -193 -25 -18 -46 -19 -687 -18 -452 0 -669 4 -687
11 -52 21 -61 50 -63 200 -2 97 2 145 11 164 26 51 206 154 339 194 92 27 105
27 201 -5 140 -46 307 -40 437 17 44 19 57 17 192 -26z"/>
<path d="M4150 4879 c-65 -14 -111 -89 -90 -145 14 -37 39 -64 69 -75 13 -5
301 -9 648 -9 572 -1 628 1 652 16 55 36 72 93 45 149 -33 71 -10 68 -686 69
-334 1 -621 -2 -638 -5z"/>
<path d="M4122 4304 c-87 -36 -86 -167 1 -207 45 -21 1269 -20 1305 1 30 17
62 70 62 102 0 32 -32 85 -62 102 -33 19 -1262 21 -1306 2z"/>
<path d="M4329 3750 c-189 -5 -209 -7 -229 -25 -64 -58 -56 -144 16 -192 24
-16 78 -17 653 -17 696 1 672 -2 705 68 20 42 20 59 0 101 -31 66 -31 66 -509
68 -236 1 -523 0 -636 -3z"/>
</g>
</svg>
