<svg id="svg" version="1.1" xmlns="http://www.w3.org/2000/svg" xmlns:xlink="http://www.w3.org/1999/xlink" width="400" height="400" viewBox="0, 0, 400,400"><g id="svgg"><path id="path0" d="M68.667 97.467 C 68.520 97.613,68.400 143.873,68.400 200.267 L 68.400 302.800 86.799 302.800 L 105.198 302.800 105.299 218.500 L 105.400 134.200 114.800 134.207 C 126.799 134.215,133.955 135.424,141.200 138.667 C 146.890 141.213,153.761 145.117,154.800 146.393 C 154.910 146.528,155.630 147.076,156.400 147.610 C 162.134 151.589,170.215 161.022,173.949 168.096 C 174.560 169.253,175.252 170.560,175.486 171.000 C 177.551 174.875,179.558 180.655,180.562 185.616 C 181.915 192.301,181.993 195.801,181.997 249.300 L 182.000 302.800 200.385 302.800 L 218.770 302.800 218.907 248.900 C 219.031 199.917,219.106 194.690,219.729 191.600 C 221.036 185.123,222.255 180.568,222.882 179.820 C 223.057 179.611,223.200 179.204,223.200 178.916 C 223.200 178.069,226.601 170.770,228.648 167.224 C 231.379 162.493,237.349 154.954,240.861 151.800 C 244.360 148.658,245.419 147.768,246.800 146.810 C 247.570 146.276,248.290 145.726,248.400 145.589 C 249.783 143.866,260.173 138.534,265.492 136.819 C 272.268 134.634,275.278 134.246,285.600 134.222 L 295.000 134.200 295.101 218.500 L 295.202 302.800 313.602 302.800 L 332.002 302.800 331.901 200.100 L 331.800 97.400 310.200 97.278 C 275.810 97.084,262.481 98.343,251.800 102.792 C 251.360 102.976,250.190 103.427,249.200 103.796 C 233.612 109.598,215.087 123.629,204.437 137.700 C 200.956 142.299,201.340 142.183,199.150 139.300 C 198.188 138.035,197.311 136.910,197.199 136.800 C 197.087 136.690,196.460 135.880,195.805 135.000 C 188.015 124.530,168.940 110.318,155.800 105.194 C 155.360 105.022,154.370 104.607,153.600 104.271 C 152.380 103.738,148.408 102.398,144.600 101.233 C 138.632 99.408,130.392 98.140,121.000 97.601 C 113.389 97.165,69.083 97.051,68.667 97.467 " stroke="none" fill="#242424" fill-rule="evenodd"></path><path id="path1" d="M30.100 0.291 C 29.165 0.376,28.400 0.616,28.400 0.823 C 28.400 1.030,27.860 1.200,27.200 1.200 C 26.540 1.200,26.000 1.380,26.000 1.600 C 26.000 1.820,25.550 2.000,25.000 2.000 C 24.450 2.000,24.000 2.180,24.000 2.400 C 24.000 2.620,23.640 2.800,23.200 2.800 C 22.760 2.800,22.400 2.980,22.400 3.200 C 22.400 3.420,22.040 3.600,21.600 3.600 C 21.160 3.600,20.800 3.780,20.800 4.000 C 20.800 4.220,20.440 4.400,20.000 4.400 C 19.560 4.400,19.200 4.580,19.200 4.800 C 19.200 5.020,18.880 5.200,18.488 5.200 C 18.097 5.200,17.517 5.560,17.200 6.000 C 16.883 6.440,16.438 6.800,16.212 6.800 C 15.179 6.802,7.600 14.185,7.600 15.189 C 7.600 15.415,7.420 15.600,7.200 15.600 C 6.980 15.600,6.800 15.830,6.800 16.112 C 6.800 16.393,6.440 16.883,6.000 17.200 C 5.560 17.517,5.200 18.097,5.200 18.488 C 5.200 18.880,5.020 19.200,4.800 19.200 C 4.580 19.200,4.400 19.560,4.400 20.000 C 4.400 20.440,4.220 20.800,4.000 20.800 C 3.780 20.800,3.600 21.160,3.600 21.600 C 3.600 22.040,3.420 22.400,3.200 22.400 C 2.980 22.400,2.800 22.760,2.800 23.200 C 2.800 23.640,2.620 24.000,2.400 24.000 C 2.180 24.000,2.000 24.439,2.000 24.976 C 2.000 25.513,1.820 26.064,1.600 26.200 C 1.380 26.336,1.200 26.872,1.200 27.390 C 1.200 27.909,0.975 28.408,0.700 28.500 C -0.036 28.745,-0.036 371.255,0.700 371.500 C 0.975 371.592,1.200 372.091,1.200 372.610 C 1.200 373.128,1.380 373.664,1.600 373.800 C 1.820 373.936,2.000 374.487,2.000 375.024 C 2.000 375.561,2.180 376.000,2.400 376.000 C 2.620 376.000,2.800 376.360,2.800 376.800 C 2.800 377.240,2.980 377.600,3.200 377.600 C 3.420 377.600,3.600 377.960,3.600 378.400 C 3.600 378.840,3.780 379.200,4.000 379.200 C 4.220 379.200,4.400 379.560,4.400 380.000 C 4.400 380.440,4.580 380.800,4.800 380.800 C 5.020 380.800,5.200 381.120,5.200 381.512 C 5.200 381.903,5.560 382.483,6.000 382.800 C 6.440 383.117,6.800 383.607,6.800 383.888 C 6.800 384.170,6.980 384.400,7.200 384.400 C 7.420 384.400,7.600 384.585,7.600 384.811 C 7.600 385.815,15.179 393.198,16.212 393.200 C 16.438 393.200,16.883 393.560,17.200 394.000 C 17.517 394.440,18.097 394.800,18.488 394.800 C 18.880 394.800,19.200 394.980,19.200 395.200 C 19.200 395.420,19.560 395.600,20.000 395.600 C 20.440 395.600,20.800 395.780,20.800 396.000 C 20.800 396.220,21.160 396.400,21.600 396.400 C 22.040 396.400,22.400 396.580,22.400 396.800 C 22.400 397.020,22.760 397.200,23.200 397.200 C 23.640 397.200,24.000 397.380,24.000 397.600 C 24.000 397.820,24.450 398.000,25.000 398.000 C 25.550 398.000,26.000 398.180,26.000 398.400 C 26.000 398.620,26.525 398.800,27.167 398.800 C 27.808 398.800,28.408 399.025,28.500 399.300 C 28.745 400.036,371.255 400.036,371.500 399.300 C 371.592 399.025,372.192 398.800,372.833 398.800 C 373.475 398.800,374.000 398.620,374.000 398.400 C 374.000 398.180,374.450 398.000,375.000 398.000 C 375.550 398.000,376.000 397.820,376.000 397.600 C 376.000 397.380,376.360 397.200,376.800 397.200 C 377.240 397.200,377.600 397.020,377.600 396.800 C 377.600 396.580,377.960 396.400,378.400 396.400 C 378.840 396.400,379.200 396.220,379.200 396.000 C 379.200 395.780,379.560 395.600,380.000 395.600 C 380.440 395.600,380.800 395.420,380.800 395.200 C 380.800 394.980,381.120 394.800,381.512 394.800 C 381.903 394.800,382.483 394.440,382.800 394.000 C 383.117 393.560,383.562 393.200,383.788 393.200 C 384.821 393.198,392.400 385.815,392.400 384.811 C 392.400 384.585,392.580 384.400,392.800 384.400 C 393.020 384.400,393.200 384.170,393.200 383.888 C 393.200 383.607,393.560 383.117,394.000 382.800 C 394.440 382.483,394.800 381.903,394.800 381.512 C 394.800 381.120,394.980 380.800,395.200 380.800 C 395.420 380.800,395.600 380.440,395.600 380.000 C 395.600 379.560,395.780 379.200,396.000 379.200 C 396.220 379.200,396.400 378.840,396.400 378.400 C 396.400 377.960,396.580 377.600,396.800 377.600 C 397.020 377.600,397.200 377.240,397.200 376.800 C 397.200 376.360,397.380 376.000,397.600 376.000 C 397.820 376.000,398.000 375.561,398.000 375.024 C 398.000 374.487,398.180 373.936,398.400 373.800 C 398.620 373.664,398.800 373.128,398.800 372.610 C 398.800 372.091,399.025 371.592,399.300 371.500 C 400.036 371.255,400.036 28.745,399.300 28.500 C 399.025 28.408,398.800 27.909,398.800 27.390 C 398.800 26.872,398.620 26.336,398.400 26.200 C 398.180 26.064,398.000 25.513,398.000 24.976 C 398.000 24.439,397.820 24.000,397.600 24.000 C 397.380 24.000,397.200 23.640,397.200 23.200 C 397.200 22.760,397.020 22.400,396.800 22.400 C 396.580 22.400,396.400 22.040,396.400 21.600 C 396.400 21.160,396.220 20.800,396.000 20.800 C 395.780 20.800,395.600 20.440,395.600 20.000 C 395.600 19.560,395.420 19.200,395.200 19.200 C 394.980 19.200,394.800 18.880,394.800 18.488 C 394.800 18.097,394.440 17.517,394.000 17.200 C 393.560 16.883,393.200 16.393,393.200 16.112 C 393.200 15.830,393.020 15.600,392.800 15.600 C 392.580 15.600,392.400 15.415,392.400 15.189 C 392.400 14.185,384.821 6.802,383.788 6.800 C 383.562 6.800,383.117 6.440,382.800 6.000 C 382.483 5.560,381.903 5.200,381.512 5.200 C 381.120 5.200,380.800 5.020,380.800 4.800 C 380.800 4.580,380.440 4.400,380.000 4.400 C 379.560 4.400,379.200 4.220,379.200 4.000 C 379.200 3.780,378.840 3.600,378.400 3.600 C 377.960 3.600,377.600 3.420,377.600 3.200 C 377.600 2.980,377.240 2.800,376.800 2.800 C 376.360 2.800,376.000 2.620,376.000 2.400 C 376.000 2.180,375.550 2.000,375.000 2.000 C 374.450 2.000,374.000 1.820,374.000 1.600 C 374.000 1.380,373.475 1.200,372.833 1.200 C 372.192 1.200,371.592 0.975,371.500 0.700 C 371.343 0.229,35.199 -0.174,30.100 0.291 M126.155 97.221 C 133.175 98.031,135.358 98.402,141.250 99.789 C 149.315 101.687,158.635 105.310,165.300 109.138 C 166.125 109.612,167.445 110.366,168.234 110.812 C 178.532 116.646,190.407 127.031,197.975 136.823 C 201.394 141.248,201.087 141.139,203.005 138.600 C 208.358 131.516,217.357 122.414,223.600 117.770 C 227.828 114.625,233.431 110.800,233.810 110.800 C 233.945 110.800,234.808 110.294,235.728 109.676 C 238.594 107.748,246.713 103.935,251.600 102.221 C 256.747 100.415,260.102 99.582,268.600 98.000 C 273.322 97.121,277.661 97.000,304.400 97.000 L 332.600 97.000 332.701 199.976 C 332.781 282.093,332.700 303.016,332.301 303.270 C 331.721 303.638,295.982 303.721,295.033 303.357 C 294.459 303.137,294.400 295.311,294.400 218.757 L 294.400 134.400 287.407 134.400 C 283.562 134.400,279.107 134.594,277.507 134.830 C 271.521 135.716,267.622 136.554,266.305 137.239 C 265.923 137.438,265.336 137.600,265.000 137.600 C 264.664 137.600,264.077 137.759,263.695 137.953 C 263.313 138.148,262.550 138.489,262.000 138.711 C 248.593 144.131,236.456 154.914,228.811 168.200 C 226.779 171.731,226.306 172.710,223.979 178.200 C 223.377 179.621,222.307 182.957,221.927 184.600 C 221.106 188.146,220.733 189.910,220.319 192.200 C 220.027 193.817,219.837 212.266,219.737 248.780 C 219.621 291.224,219.482 303.028,219.094 303.274 C 218.448 303.684,182.351 303.684,181.705 303.274 C 181.318 303.027,181.180 290.828,181.067 246.780 C 180.969 208.597,180.784 189.895,180.489 188.400 C 179.745 184.627,179.575 183.847,179.135 182.200 C 178.641 180.351,178.073 178.584,177.560 177.300 C 177.362 176.805,177.042 175.995,176.848 175.500 C 172.078 163.307,160.707 149.887,150.125 143.961 C 149.286 143.491,148.150 142.804,147.600 142.435 C 147.050 142.066,145.790 141.386,144.800 140.924 C 134.376 136.056,124.879 134.186,112.000 134.465 L 105.800 134.600 105.600 219.000 L 105.400 303.400 86.826 303.504 C 72.232 303.586,68.184 303.500,67.932 303.104 C 67.564 302.524,67.475 98.390,67.843 97.433 C 68.140 96.659,119.660 96.471,126.155 97.221 " stroke="none" fill="#dbdbfb" fill-rule="evenodd"></path><path id="path2" d="M80.729 97.100 C 87.399 97.161,98.199 97.161,104.729 97.100 C 111.258 97.038,105.800 96.988,92.600 96.988 C 79.400 96.988,74.058 97.038,80.729 97.100 M296.100 97.100 C 302.645 97.161,313.355 97.161,319.900 97.100 C 326.445 97.038,321.090 96.988,308.000 96.988 C 294.910 96.988,289.555 97.038,296.100 97.100 " stroke="none" fill="#7c7c8c" fill-rule="evenodd"></path><path id="path3" d="M116.433 96.945 C 116.525 97.025,118.940 97.178,121.800 97.285 C 124.873 97.400,126.264 97.353,125.200 97.170 C 123.396 96.859,116.120 96.672,116.433 96.945 M275.200 97.190 C 274.430 97.347,276.140 97.388,279.000 97.283 C 281.860 97.177,284.275 97.025,284.367 96.945 C 284.667 96.684,276.635 96.898,275.200 97.190 M331.901 97.277 C 332.299 97.760,332.381 118.782,332.301 200.442 L 332.200 303.000 313.600 303.000 L 295.000 303.000 294.799 218.600 L 294.597 134.200 294.499 218.657 C 294.409 295.360,294.458 303.137,295.033 303.357 C 295.982 303.721,331.721 303.638,332.301 303.270 C 333.125 302.746,332.826 97.141,332.000 96.868 C 331.507 96.705,331.489 96.778,331.901 97.277 M67.797 200.200 C 67.797 256.740,67.843 279.929,67.900 251.732 C 67.957 223.535,67.957 177.275,67.900 148.932 C 67.843 120.589,67.797 143.660,67.797 200.200 M130.200 98.000 C 130.860 98.168,131.850 98.309,132.400 98.313 L 133.400 98.320 132.400 98.000 C 131.850 97.824,130.860 97.683,130.200 97.687 L 129.000 97.695 130.200 98.000 M268.600 98.000 L 267.800 98.344 268.600 98.325 C 269.040 98.314,269.940 98.168,270.600 98.000 L 271.800 97.695 270.600 97.675 C 269.940 97.665,269.040 97.811,268.600 98.000 M135.600 98.800 C 136.968 99.238,138.019 99.238,137.000 98.800 C 136.560 98.611,135.840 98.462,135.400 98.468 C 134.757 98.477,134.796 98.543,135.600 98.800 M264.000 98.800 C 263.208 99.054,263.167 99.120,263.800 99.120 C 264.240 99.120,265.050 98.976,265.600 98.800 C 266.392 98.546,266.433 98.480,265.800 98.480 C 265.360 98.480,264.550 98.624,264.000 98.800 M139.400 99.600 C 139.840 99.789,140.470 99.944,140.800 99.944 C 141.178 99.944,141.104 99.817,140.600 99.600 C 140.160 99.411,139.530 99.256,139.200 99.256 C 138.822 99.256,138.896 99.383,139.400 99.600 M260.400 99.600 C 259.867 99.945,259.867 99.988,260.400 99.988 C 260.730 99.988,261.270 99.813,261.600 99.600 C 262.133 99.255,262.133 99.212,261.600 99.212 C 261.270 99.212,260.730 99.387,260.400 99.600 M142.600 100.400 C 143.040 100.589,143.670 100.744,144.000 100.744 C 144.378 100.744,144.304 100.617,143.800 100.400 C 143.360 100.211,142.730 100.056,142.400 100.056 C 142.022 100.056,142.096 100.183,142.600 100.400 M257.400 100.400 C 256.896 100.617,256.822 100.744,257.200 100.744 C 257.530 100.744,258.160 100.589,258.600 100.400 C 259.104 100.183,259.178 100.056,258.800 100.056 C 258.470 100.056,257.840 100.211,257.400 100.400 M147.600 101.746 C 147.600 101.933,151.389 103.208,151.875 103.184 C 152.346 103.162,149.992 102.178,148.700 101.857 C 148.095 101.707,147.600 101.657,147.600 101.746 M248.100 103.434 C 247.385 103.746,246.800 104.090,246.800 104.198 C 246.800 104.376,249.976 103.251,250.367 102.935 C 250.795 102.588,249.262 102.926,248.100 103.434 M158.854 106.187 C 159.190 106.523,162.000 107.616,162.000 107.411 C 162.000 107.301,161.348 106.938,160.551 106.605 C 159.075 105.989,158.518 105.851,158.854 106.187 M162.800 108.020 C 164.187 108.961,164.978 109.235,164.000 108.436 C 163.450 107.986,162.820 107.617,162.600 107.615 C 162.380 107.613,162.470 107.796,162.800 108.020 M236.400 109.233 L 235.400 110.048 236.700 109.414 C 237.415 109.065,238.000 108.694,238.000 108.590 C 238.000 108.192,237.363 108.448,236.400 109.233 M168.400 111.220 C 169.787 112.161,170.578 112.435,169.600 111.636 C 169.050 111.186,168.420 110.817,168.200 110.815 C 167.980 110.813,168.070 110.996,168.400 111.220 M232.400 111.633 L 231.400 112.448 232.700 111.814 C 233.415 111.465,234.000 111.094,234.000 110.990 C 234.000 110.592,233.363 110.848,232.400 111.633 M226.000 116.049 C 224.606 117.271,224.605 117.272,225.888 116.419 C 226.596 115.948,227.282 115.391,227.412 115.181 C 227.797 114.557,227.477 114.754,226.000 116.049 M178.000 117.316 C 178.000 117.410,179.395 118.622,181.100 120.011 C 182.805 121.399,183.872 122.161,183.470 121.703 C 182.668 120.789,178.000 117.045,178.000 117.316 M214.606 125.657 C 211.183 128.989,208.431 131.765,208.492 131.825 C 208.553 131.886,211.453 129.160,214.936 125.768 C 218.420 122.376,221.171 119.600,221.051 119.600 C 220.930 119.600,218.030 122.326,214.606 125.657 M189.419 127.566 C 192.070 130.335,195.285 133.905,196.564 135.500 C 197.843 137.095,198.972 138.400,199.072 138.400 C 199.634 138.400,194.671 132.703,190.000 127.986 L 184.600 122.533 189.419 127.566 M206.975 133.700 L 205.800 135.000 207.100 133.825 C 207.815 133.179,208.400 132.594,208.400 132.525 C 208.400 132.216,208.070 132.488,206.975 133.700 M121.233 134.550 C 121.325 134.632,122.480 134.800,123.800 134.923 C 125.378 135.070,125.789 135.035,125.000 134.820 C 123.766 134.485,120.936 134.282,121.233 134.550 M275.800 134.800 L 274.600 135.105 275.800 135.105 C 276.460 135.105,277.540 134.968,278.200 134.800 L 279.400 134.495 278.200 134.495 C 277.540 134.495,276.460 134.632,275.800 134.800 M128.600 135.600 C 129.040 135.789,129.760 135.938,130.200 135.932 C 130.843 135.923,130.804 135.857,130.000 135.600 C 128.632 135.162,127.581 135.162,128.600 135.600 M204.024 137.300 C 203.132 138.455,202.137 139.760,201.815 140.200 C 201.239 140.985,201.209 140.978,200.181 139.800 L 199.134 138.600 199.994 139.900 C 201.143 141.635,201.133 141.640,203.735 138.200 C 204.983 136.550,205.924 135.200,205.826 135.200 C 205.727 135.200,204.917 136.145,204.024 137.300 M271.200 135.600 C 270.396 135.857,270.357 135.923,271.000 135.932 C 271.440 135.938,272.160 135.789,272.600 135.600 C 273.619 135.162,272.568 135.162,271.200 135.600 M253.800 142.400 C 253.140 142.837,252.780 143.192,253.000 143.188 C 253.401 143.182,255.576 141.623,255.200 141.612 C 255.090 141.608,254.460 141.963,253.800 142.400 M148.800 143.167 C 149.763 143.952,150.400 144.208,150.400 143.810 C 150.400 143.706,149.815 143.335,149.100 142.986 L 147.800 142.352 148.800 143.167 M246.800 147.161 C 245.370 148.236,243.840 149.527,243.400 150.031 C 242.960 150.535,243.695 150.059,245.033 148.974 C 246.372 147.888,247.992 146.605,248.633 146.122 C 249.275 145.639,249.710 145.236,249.600 145.226 C 249.490 145.216,248.230 146.087,246.800 147.161 M154.567 146.882 C 155.208 147.387,156.828 148.668,158.167 149.728 C 160.459 151.545,160.496 151.559,158.800 149.981 C 157.810 149.060,156.190 147.780,155.200 147.136 C 154.210 146.492,153.925 146.378,154.567 146.882 M240.077 152.922 C 238.934 154.079,238.000 155.127,238.000 155.252 C 238.000 155.376,238.991 154.487,240.203 153.275 C 241.414 152.064,242.349 151.016,242.279 150.946 C 242.210 150.877,241.219 151.766,240.077 152.922 M165.389 156.900 C 166.683 158.385,167.817 159.600,167.908 159.600 C 168.173 159.600,164.983 155.881,163.962 155.000 C 163.453 154.560,164.095 155.415,165.389 156.900 M234.955 158.681 C 234.107 159.716,233.622 160.434,233.877 160.276 C 234.421 159.940,236.955 156.800,236.682 156.800 C 236.580 156.800,235.803 157.647,234.955 158.681 M169.861 162.673 C 171.725 165.388,172.842 166.793,172.189 165.600 C 171.435 164.223,168.773 160.431,168.396 160.198 C 168.172 160.059,168.831 161.173,169.861 162.673 M231.519 163.300 C 230.357 164.848,229.896 165.600,230.109 165.600 C 230.194 165.600,230.846 164.790,231.557 163.800 C 233.032 161.746,233.000 161.327,231.519 163.300 M228.614 167.835 C 228.241 168.404,228.005 168.938,228.089 169.022 C 228.173 169.107,228.558 168.641,228.944 167.988 C 229.806 166.528,229.548 166.409,228.614 167.835 M179.634 184.600 C 179.622 185.040,179.787 185.670,180.000 186.000 C 180.514 186.795,180.514 185.796,180.000 184.600 L 179.656 183.800 179.634 184.600 M221.400 185.200 C 221.250 185.673,221.217 186.150,221.327 186.260 C 221.437 186.370,221.650 186.073,221.800 185.600 C 221.950 185.127,221.983 184.650,221.873 184.540 C 221.763 184.430,221.550 184.727,221.400 185.200 M220.629 188.629 C 220.481 189.215,220.451 189.784,220.561 189.894 C 220.671 190.004,220.881 189.615,221.029 189.029 C 221.176 188.442,221.206 187.873,221.096 187.763 C 220.986 187.653,220.776 188.042,220.629 188.629 M180.480 188.800 C 180.480 189.350,180.624 190.250,180.800 190.800 L 181.120 191.800 181.120 190.800 C 181.120 190.250,180.976 189.350,180.800 188.800 L 180.480 187.800 180.480 188.800 M219.818 193.418 C 219.665 194.439,219.630 195.363,219.740 195.473 C 219.850 195.583,220.065 194.839,220.218 193.818 C 220.371 192.798,220.406 191.873,220.296 191.763 C 220.186 191.653,219.971 192.398,219.818 193.418 M181.298 248.657 C 181.209 298.003,181.259 303.137,181.833 303.357 C 182.659 303.674,218.141 303.674,218.967 303.357 C 219.540 303.137,219.591 298.180,219.502 250.657 L 219.404 198.200 219.202 250.600 L 219.000 303.000 200.400 303.000 L 181.800 303.000 181.598 248.600 L 181.396 194.200 181.298 248.657 M86.600 303.200 L 67.800 303.412 86.476 303.506 C 98.598 303.567,105.240 303.460,105.400 303.200 C 105.536 302.980,105.592 302.842,105.524 302.894 C 105.456 302.946,96.940 303.083,86.600 303.200 " stroke="none" fill="#848494" fill-rule="evenodd"></path><path id="path4" d="M68.000 200.204 L 68.000 303.208 86.700 303.104 L 105.400 303.000 105.501 218.708 L 105.602 134.416 114.001 134.296 L 122.401 134.176 113.900 134.188 L 105.400 134.200 105.299 218.500 L 105.198 302.800 86.798 302.800 L 68.397 302.800 68.498 200.000 C 68.554 143.460,68.465 97.200,68.300 97.200 C 68.135 97.200,68.000 143.552,68.000 200.204 M118.300 97.493 C 119.235 97.577,120.765 97.577,121.700 97.493 C 122.635 97.409,121.870 97.340,120.000 97.340 C 118.130 97.340,117.365 97.409,118.300 97.493 M278.700 97.493 C 279.635 97.577,281.165 97.577,282.100 97.493 C 283.035 97.409,282.270 97.340,280.400 97.340 C 278.530 97.340,277.765 97.409,278.700 97.493 M331.902 200.020 L 332.003 302.800 313.602 302.800 L 295.202 302.800 295.101 218.500 L 295.000 134.200 286.800 134.188 L 278.600 134.176 286.699 134.296 L 294.798 134.416 294.899 218.708 L 295.000 303.000 313.600 303.000 L 332.200 303.000 332.301 200.421 C 332.356 144.002,332.266 97.706,332.101 97.541 C 331.935 97.375,331.846 143.491,331.902 200.020 M125.700 97.887 C 126.305 97.978,127.295 97.978,127.900 97.887 C 128.505 97.795,128.010 97.720,126.800 97.720 C 125.590 97.720,125.095 97.795,125.700 97.887 M272.500 97.887 C 273.105 97.978,274.095 97.978,274.700 97.887 C 275.305 97.795,274.810 97.720,273.600 97.720 C 272.390 97.720,271.895 97.795,272.500 97.887 M132.500 98.676 C 132.885 98.776,133.515 98.776,133.900 98.676 C 134.285 98.575,133.970 98.493,133.200 98.493 C 132.430 98.493,132.115 98.575,132.500 98.676 M265.600 98.820 C 264.926 99.049,265.251 99.084,266.600 98.928 C 267.700 98.801,268.675 98.631,268.767 98.549 C 269.082 98.268,266.599 98.480,265.600 98.820 M138.000 99.600 C 139.368 100.038,140.419 100.038,139.400 99.600 C 138.960 99.411,138.240 99.262,137.800 99.268 C 137.157 99.277,137.196 99.343,138.000 99.600 M261.800 99.600 C 260.781 100.038,261.832 100.038,263.200 99.600 C 264.004 99.343,264.043 99.277,263.400 99.268 C 262.960 99.262,262.240 99.411,261.800 99.600 M258.600 100.400 C 258.096 100.617,258.022 100.744,258.400 100.744 C 258.730 100.744,259.360 100.589,259.800 100.400 C 260.304 100.183,260.378 100.056,260.000 100.056 C 259.670 100.056,259.040 100.211,258.600 100.400 M234.900 110.446 C 233.537 111.319,233.095 111.906,234.300 111.243 C 235.218 110.739,236.656 109.627,236.400 109.619 C 236.290 109.616,235.615 109.988,234.900 110.446 M171.000 113.078 C 171.732 113.802,178.039 117.987,177.790 117.584 C 177.655 117.366,176.252 116.322,174.672 115.264 C 171.437 113.099,170.390 112.475,171.000 113.078 M224.385 117.629 L 223.000 118.858 224.500 117.781 C 225.826 116.830,226.257 116.400,225.885 116.400 C 225.822 116.400,225.147 116.953,224.385 117.629 M181.600 120.525 C 181.600 120.594,182.185 121.179,182.900 121.825 L 184.200 123.000 183.025 121.700 C 181.930 120.488,181.600 120.216,181.600 120.525 M213.480 127.120 C 211.126 129.481,209.200 131.509,209.200 131.627 C 209.200 131.744,211.177 129.863,213.593 127.447 C 216.010 125.030,217.936 123.002,217.873 122.940 C 217.811 122.878,215.834 124.759,213.480 127.120 M188.776 127.500 C 191.099 129.865,193.081 131.749,193.180 131.687 C 193.390 131.554,185.125 123.200,184.784 123.200 C 184.657 123.200,186.453 125.135,188.776 127.500 M193.600 132.525 C 193.600 132.594,194.185 133.179,194.900 133.825 L 196.200 135.000 195.025 133.700 C 193.930 132.488,193.600 132.216,193.600 132.525 M207.375 133.700 L 206.200 135.000 207.500 133.825 C 208.215 133.179,208.800 132.594,208.800 132.525 C 208.800 132.216,208.470 132.488,207.375 133.700 M126.900 135.076 C 127.285 135.176,127.915 135.176,128.300 135.076 C 128.685 134.975,128.370 134.893,127.600 134.893 C 126.830 134.893,126.515 134.975,126.900 135.076 M130.200 135.581 C 130.968 135.929,133.110 136.156,132.767 135.853 C 132.675 135.772,131.880 135.596,131.000 135.462 C 129.885 135.293,129.642 135.329,130.200 135.581 M269.600 135.600 C 268.796 135.857,268.757 135.923,269.400 135.932 C 269.840 135.938,270.560 135.789,271.000 135.600 C 272.019 135.162,270.968 135.162,269.600 135.600 M133.600 136.382 C 133.930 136.605,134.545 136.791,134.967 136.794 C 135.990 136.802,135.671 136.573,134.200 136.244 C 133.324 136.048,133.162 136.085,133.600 136.382 M203.944 137.900 C 202.793 139.289,202.306 140.000,202.504 140.000 C 202.614 140.000,203.186 139.370,203.773 138.600 C 204.863 137.171,204.995 136.632,203.944 137.900 M200.500 141.008 C 201.189 141.759,201.211 141.759,201.900 141.008 C 202.567 140.280,202.567 140.269,201.900 140.771 C 201.321 141.207,201.079 141.207,200.500 140.771 C 199.833 140.269,199.833 140.280,200.500 141.008 M250.806 143.823 C 249.379 144.800,248.349 145.600,248.518 145.600 C 248.687 145.600,250.033 144.790,251.508 143.800 C 252.984 142.810,254.013 142.010,253.796 142.023 C 253.578 142.036,252.232 142.846,250.806 143.823 M149.600 143.220 C 150.987 144.161,151.778 144.435,150.800 143.636 C 150.250 143.186,149.620 142.817,149.400 142.815 C 149.180 142.813,149.270 142.996,149.600 143.220 M159.487 150.409 C 160.195 151.151,160.842 151.678,160.925 151.579 C 161.008 151.481,160.429 150.873,159.638 150.229 L 158.200 149.058 159.487 150.409 M239.780 152.900 C 238.462 154.275,236.938 155.944,236.392 156.608 C 235.846 157.273,236.809 156.329,238.531 154.511 C 240.252 152.693,241.962 151.030,242.331 150.815 C 242.699 150.600,242.815 150.419,242.588 150.412 C 242.362 150.405,241.098 151.525,239.780 152.900 M164.400 155.400 C 165.372 156.390,166.242 157.200,166.335 157.200 C 166.673 157.200,163.389 153.674,163.017 153.638 C 162.806 153.617,163.428 154.410,164.400 155.400 M167.991 159.588 C 168.457 160.241,169.042 160.902,169.291 161.056 C 169.541 161.211,169.241 160.676,168.625 159.868 C 167.288 158.115,166.784 157.892,167.991 159.588 M234.159 159.300 C 232.407 161.321,231.887 162.000,232.090 162.000 C 232.207 162.000,232.967 161.190,233.779 160.200 C 235.281 158.366,235.579 157.663,234.159 159.300 M178.644 179.400 C 178.973 180.871,179.202 181.190,179.194 180.167 C 179.191 179.745,179.005 179.130,178.782 178.800 C 178.485 178.362,178.448 178.524,178.644 179.400 M179.467 182.400 C 179.848 184.501,180.436 185.722,180.142 183.800 C 180.008 182.920,179.744 181.930,179.556 181.600 C 179.348 181.235,179.313 181.549,179.467 182.400 M221.849 182.215 C 221.712 182.573,221.615 183.166,221.634 183.533 C 221.653 183.900,221.827 183.669,222.021 183.020 C 222.398 181.758,222.265 181.133,221.849 182.215 M220.093 190.400 C 220.093 191.170,220.175 191.485,220.276 191.100 C 220.376 190.715,220.376 190.085,220.276 189.700 C 220.175 189.315,220.093 189.630,220.093 190.400 M181.314 192.200 C 181.317 193.300,181.395 193.703,181.487 193.095 C 181.579 192.486,181.577 191.586,181.482 191.095 C 181.387 190.603,181.311 191.100,181.314 192.200 M219.320 196.000 C 219.320 197.210,219.395 197.705,219.487 197.100 C 219.578 196.495,219.578 195.505,219.487 194.900 C 219.395 194.295,219.320 194.790,219.320 196.000 M181.798 248.700 L 181.800 303.000 200.400 303.000 L 219.000 303.000 219.002 250.800 L 219.005 198.600 218.901 250.700 L 218.797 302.800 200.400 302.800 L 182.003 302.800 181.899 248.600 L 181.796 194.400 181.798 248.700 " stroke="none" fill="#747484" fill-rule="evenodd"></path></g></svg>